<svg xmlns="http://www.w3.org/2000/svg" viewBox="0 0 760 230" role="img" aria-labelledby="title desc"><title id="title">Survey Guru</title><desc id="desc">Survey Guru mark combining a location pin with a simplified Table Mountain silhouette.</desc><defs><linearGradient id="g" x1="0" y1="0" x2="1" y2="1"><stop stop-color="#00f0c0"/><stop offset="1" stop-color="#00bca2"/></linearGradient></defs><g transform="translate(18 25)" fill="url(#g)"><path d="M8 154c8-18 20-29 34-35l15-33 15-2 9-13 13 1 9-11 13 1 10-8 18 2 9-8 17 3 9-7 15 4 9-5 17 7 10-4 14 9 11-2 18 19 17 9 14 28c5 11-1 21-14 21H24c-15 0-22-12-16-26Z"/><path d="M45 119h139c10 0 19-4 26-12l10-12 16 27H35l10-3Z" opacity=".72"/><path fill-rule="evenodd" d="M85 26C85 3 103-15 126-15s41 18 41 41c0 29-41 77-41 77S85 55 85 26Zm41-19a19 19 0 1 0 0 38 19 19 0 0 0 0-38Z"/><path d="M119 101h14v47h-14z" opacity=".92"/></g><g fill="#f5fbf9"><text x="270" y="112" font-family="Arial,Helvetica,sans-serif" font-size="72" font-weight="800" letter-spacing="-3">Survey Guru</text><text x="274" y="155" font-family="Arial,Helvetica,sans-serif" font-size="17" letter-spacing="5">SEE MORE. KNOW SOONER. MOVE FURTHER.</text></g></svg>